<?xml version="1.0" encoding="utf-8"?>
<!-- Generator: Adobe Illustrator 22.1.0, SVG Export Plug-In . SVG Version: 6.00 Build 0)  -->
<svg version="1.1" id="Layer_1" xmlns="http://www.w3.org/2000/svg" xmlns:xlink="http://www.w3.org/1999/xlink" x="0px" y="0px"
	 viewBox="0 0 111.6 36" style="enable-background:new 0 0 111.6 36;" xml:space="preserve">
<style type="text/css">
	.st0{fill:#0088CE;}
	.st1{fill:#FFFFFF;}
	.st2{fill:#D4D4D3;}
</style>
<path class="st0" d="M6.73,25.31H0C0.01,14.63,2.84,7.84,2.84,7.84C1.93,19.34,6.73,25.31,6.73,25.31z"/>
<path class="st0" d="M33.93,0c0,0-21.38,8.44-25.34,25.31h18C26.58,25.31,13.66,21.92,33.93,0z"/>
<path class="st1" d="M60.48,15.7v2.25h0.04c0.3-0.78,0.76-1.38,1.39-1.81c0.63-0.42,1.37-0.61,2.24-0.58v0.98
	c-1.3,0-2.26,0.81-2.58,1.12c-0.32,0.31-0.56,0.68-0.73,1.11c-0.17,0.43-0.26,0.9-0.26,1.4v5.12H59.4V15.7H60.48z M53.55,15.7v9.61
	h1.17v-5.12c0-0.51,0.09-0.98,0.26-1.4c0.17-0.43,0.42-0.8,0.73-1.11c0.32-0.31,1.28-1.12,2.58-1.12v-0.98
	c-0.87-0.04-1.62,0.16-2.24,0.58c-0.63,0.42-1.09,1.02-1.39,1.81h-0.04V15.7H53.55z M78.63,17.03c0.43,0.41,0.73,0.97,0.89,1.69
	h1.17c-0.14-1.1-0.56-1.93-1.28-2.48c-0.71-0.55-1.59-0.82-2.62-0.82c-0.73,0-1.38,0.14-1.95,0.41c-0.56,0.27-1.04,0.64-1.42,1.1
	c-0.39,0.46-0.68,1-0.88,1.61c-0.2,0.62-0.3,1.27-0.3,1.96c0,0.69,0.1,1.35,0.3,1.96c0.2,0.61,0.49,1.15,0.88,1.61
	c0.38,0.46,0.86,0.82,1.42,1.09c0.56,0.27,1.21,0.4,1.95,0.4c1.09,0,1.99-0.33,2.68-0.98c0.69-0.65,1.12-1.56,1.28-2.73H79.6
	c-0.04,0.4-0.14,0.76-0.3,1.1c-0.16,0.34-0.37,0.62-0.61,0.87c-0.25,0.24-0.53,0.43-0.86,0.57c-0.32,0.14-0.66,0.2-1.02,0.2
	c-0.56,0-1.05-0.12-1.47-0.35c-0.42-0.23-0.77-0.55-1.05-0.93C74,22.93,73.79,22.5,73.65,22c-0.14-0.49-0.21-0.99-0.21-1.5
	c0-0.51,0.07-1.01,0.21-1.5c0.14-0.49,0.35-0.93,0.63-1.31c0.28-0.38,0.63-0.69,1.05-0.93c0.42-0.24,0.91-0.35,1.47-0.35
	C77.59,16.41,78.19,16.62,78.63,17.03 M89.38,25.31V15.7h-1.17v5.05c0,0.48-0.06,0.96-0.17,1.42c-0.11,0.46-0.29,0.88-0.52,1.24
	c-0.24,0.36-0.53,0.65-0.89,0.87c-0.36,0.22-0.79,0.33-1.3,0.33c-0.93,0-1.59-0.22-1.96-0.67c-0.38-0.45-0.58-1.1-0.61-1.97V15.7
	h-1.17v6.24c0,0.57,0.06,1.08,0.19,1.53c0.13,0.45,0.32,0.83,0.59,1.14c0.27,0.31,0.61,0.55,1.04,0.72
	c0.43,0.17,0.95,0.25,1.55,0.25c0.72,0,1.37-0.17,1.96-0.51c0.59-0.34,1.04-0.83,1.35-1.48h0.04v1.73H89.38z M99.17,25.31V12.02H98
	v5.51h-0.04c-0.12-0.35-0.3-0.65-0.53-0.91c-0.23-0.26-0.49-0.48-0.79-0.66c-0.3-0.18-0.62-0.31-0.96-0.4
	c-0.34-0.09-0.69-0.13-1.05-0.13c-0.73,0-1.37,0.14-1.91,0.41c-0.54,0.27-0.99,0.64-1.35,1.11c-0.36,0.47-0.63,1.01-0.8,1.62
	c-0.17,0.61-0.26,1.26-0.26,1.95c0,0.68,0.09,1.33,0.26,1.95c0.17,0.61,0.44,1.15,0.8,1.62c0.36,0.47,0.81,0.83,1.35,1.1
	c0.54,0.27,1.18,0.4,1.91,0.4c0.35,0,0.7-0.05,1.05-0.15c0.35-0.1,0.68-0.24,1-0.42c0.31-0.18,0.59-0.4,0.83-0.66
	c0.24-0.26,0.43-0.55,0.55-0.86h0.04v1.83H99.17z M91.66,21.99c-0.12-0.49-0.18-0.98-0.18-1.48c0-0.5,0.06-0.99,0.18-1.48
	c0.12-0.49,0.3-0.93,0.56-1.31c0.25-0.38,0.58-0.7,0.98-0.94c0.4-0.24,0.88-0.36,1.43-0.36c0.62,0,1.15,0.12,1.57,0.36
	c0.43,0.24,0.77,0.56,1.04,0.94c0.27,0.39,0.46,0.82,0.58,1.31c0.12,0.49,0.18,0.98,0.18,1.48c0,0.5-0.06,0.99-0.18,1.48
	c-0.12,0.49-0.31,0.93-0.58,1.31c-0.27,0.39-0.61,0.7-1.04,0.94c-0.43,0.24-0.95,0.36-1.57,0.36c-0.56,0-1.04-0.12-1.43-0.36
	c-0.4-0.24-0.72-0.55-0.98-0.94C91.96,22.91,91.78,22.48,91.66,21.99 M70.98,17.09c0.21,0.4,0.32,0.93,0.32,1.57l0,6.65h-1.11v-1.68
	l0,0c-0.21,0.31-0.43,0.59-0.64,0.83c-0.22,0.24-0.46,0.44-0.73,0.6c-0.27,0.16-0.57,0.28-0.91,0.37c-0.34,0.09-0.75,0.13-1.22,0.13
	c-0.45,0-0.87-0.05-1.26-0.16c-0.39-0.1-0.73-0.27-1.02-0.5c-0.29-0.23-0.52-0.52-0.69-0.87c-0.17-0.35-0.25-0.77-0.25-1.26
	c0-0.67,0.15-1.2,0.45-1.57c0.3-0.38,0.69-0.67,1.18-0.86c0.49-0.2,1.04-0.34,1.66-0.42c0.61-0.08,1.24-0.16,1.87-0.23
	c0.25-0.02,0.47-0.06,0.65-0.09c0.19-0.04,0.34-0.1,0.47-0.2c0.12-0.09,0.22-0.22,0.29-0.38c0.07-0.16,0.1-0.37,0.1-0.63
	c0-0.4-0.07-0.58-0.2-0.83c-0.13-0.25-0.31-0.46-0.54-0.6c-0.23-0.15-0.5-0.25-0.8-0.31c-0.3-0.06-0.63-0.08-0.98-0.08H65.5v-0.98
	h2.33c0.4,0,0.8,0.04,1.2,0.12c0.42,0.08,0.8,0.23,1.14,0.46C70.49,16.37,70.77,16.68,70.98,17.09 M70.12,20.06h-0.04
	c-0.07,0.14-0.22,0.24-0.43,0.3c-0.21,0.06-0.4,0.11-0.56,0.13c-0.5,0.09-1.01,0.17-1.54,0.23c-0.53,0.07-1.01,0.17-1.44,0.31
	c-0.43,0.14-0.79,0.33-1.07,0.59c-0.28,0.25-0.42,0.62-0.42,1.09c0,0.3,0.06,0.56,0.18,0.79c0.12,0.23,0.28,0.43,0.47,0.59
	c0.2,0.17,0.43,0.3,0.69,0.38c0.26,0.09,0.53,0.13,0.8,0.13c0.45,0,0.88-0.07,1.28-0.2c0.41-0.14,0.77-0.33,1.07-0.59
	c0.3-0.26,0.55-0.58,0.73-0.95c0.18-0.37,0.27-0.79,0.27-1.27V20.06z M51.5,17.09c0.21,0.4,0.32,0.93,0.32,1.57l0,6.65H50.7v-1.68
	l0,0c-0.21,0.31-0.43,0.59-0.64,0.83c-0.22,0.24-0.46,0.44-0.73,0.6c-0.27,0.16-0.57,0.28-0.91,0.37c-0.34,0.09-0.75,0.13-1.22,0.13
	c-0.45,0-0.87-0.05-1.26-0.16c-0.39-0.1-0.73-0.27-1.02-0.5c-0.29-0.23-0.52-0.52-0.69-0.87c-0.17-0.35-0.25-0.77-0.25-1.26
	c0-0.67,0.15-1.2,0.45-1.57c0.3-0.38,0.69-0.67,1.18-0.86c0.49-0.2,1.04-0.34,1.66-0.42c0.62-0.08,1.24-0.16,1.87-0.23
	c0.25-0.02,0.47-0.06,0.65-0.09c0.19-0.04,0.34-0.1,0.46-0.2c0.12-0.09,0.22-0.22,0.29-0.38c0.07-0.16,0.1-0.37,0.1-0.63
	c0-0.4-0.07-0.58-0.19-0.83c-0.13-0.25-0.31-0.46-0.54-0.6c-0.23-0.15-0.5-0.25-0.8-0.31c-0.31-0.06-0.63-0.08-0.98-0.08h-2.11
	v-0.98h2.33c0.4,0,0.8,0.04,1.2,0.12c0.42,0.08,0.8,0.23,1.14,0.46C51.01,16.37,51.28,16.68,51.5,17.09 M50.64,20.06H50.6
	c-0.08,0.14-0.22,0.24-0.43,0.3c-0.21,0.06-0.4,0.11-0.56,0.13c-0.5,0.09-1.01,0.17-1.54,0.23c-0.53,0.07-1.01,0.17-1.44,0.31
	c-0.44,0.14-0.79,0.33-1.07,0.59c-0.28,0.25-0.42,0.62-0.42,1.09c0,0.3,0.06,0.56,0.18,0.79c0.12,0.23,0.28,0.43,0.47,0.59
	c0.2,0.17,0.43,0.3,0.69,0.38c0.26,0.09,0.53,0.13,0.8,0.13c0.45,0,0.88-0.07,1.28-0.2c0.41-0.14,0.77-0.33,1.07-0.59
	c0.3-0.26,0.55-0.58,0.73-0.95c0.18-0.37,0.27-0.79,0.27-1.27V20.06z M107.53,17.09c0.21,0.4,0.32,0.93,0.32,1.57l0,6.65h-1.11
	v-1.68l0,0c-0.21,0.31-0.43,0.59-0.64,0.83c-0.22,0.24-0.46,0.44-0.73,0.6c-0.27,0.16-0.57,0.29-0.91,0.37
	c-0.34,0.09-0.75,0.13-1.22,0.13c-0.45,0-0.86-0.05-1.26-0.16c-0.39-0.11-0.73-0.27-1.02-0.5c-0.29-0.23-0.52-0.52-0.69-0.88
	c-0.17-0.35-0.25-0.77-0.25-1.26c0-0.67,0.15-1.19,0.45-1.57c0.3-0.38,0.69-0.67,1.18-0.86c0.49-0.2,1.04-0.34,1.66-0.42
	c0.61-0.08,1.24-0.16,1.87-0.23c0.25-0.02,0.47-0.06,0.65-0.09c0.19-0.04,0.34-0.1,0.47-0.19c0.13-0.09,0.22-0.22,0.29-0.38
	c0.07-0.16,0.1-0.37,0.1-0.63c0-0.4-0.07-0.58-0.2-0.83c-0.13-0.25-0.31-0.46-0.54-0.6c-0.23-0.15-0.5-0.25-0.8-0.31
	c-0.31-0.06-0.63-0.08-0.98-0.08h-2.11v-0.98h2.33c0.4,0,0.8,0.04,1.2,0.12c0.42,0.08,0.8,0.23,1.14,0.46
	C107.05,16.37,107.32,16.68,107.53,17.09 M106.67,20.06h-0.04c-0.07,0.14-0.22,0.24-0.43,0.3c-0.21,0.06-0.4,0.11-0.56,0.13
	c-0.5,0.09-1.01,0.16-1.54,0.23c-0.53,0.07-1.01,0.17-1.44,0.31c-0.43,0.14-0.79,0.33-1.07,0.59c-0.28,0.25-0.42,0.62-0.42,1.09
	c0,0.3,0.06,0.56,0.18,0.79c0.12,0.23,0.28,0.43,0.47,0.59c0.2,0.17,0.43,0.3,0.69,0.38c0.26,0.09,0.53,0.13,0.8,0.13
	c0.45,0,0.88-0.07,1.28-0.2c0.41-0.14,0.77-0.34,1.07-0.6c0.3-0.26,0.55-0.58,0.73-0.95c0.18-0.37,0.27-0.79,0.27-1.27V20.06z
	 M32.63,11.62v13.69h5.79c0.74,0,1.38-0.07,1.91-0.2c0.53-0.13,0.98-0.31,1.34-0.52c0.36-0.21,0.65-0.46,0.87-0.74
	c0.22-0.28,0.38-0.57,0.5-0.85c0.11-0.29,0.19-0.57,0.23-0.84c0.04-0.27,0.06-0.52,0.06-0.74c0-0.89-0.26-1.64-0.79-2.25
	c-0.52-0.61-1.23-0.97-2.11-1.08v-0.04c0.36-0.08,0.68-0.21,0.97-0.4c0.29-0.19,0.54-0.43,0.75-0.7c0.21-0.28,0.37-0.58,0.49-0.92
	c0.12-0.34,0.17-0.69,0.17-1.04c0-0.64-0.12-1.17-0.36-1.6c-0.24-0.43-0.57-0.77-0.97-1.04c-0.4-0.26-0.87-0.45-1.4-0.56
	c-0.53-0.11-1.08-0.16-1.66-0.16H32.63z M33.93,17.62v-4.89h4.49c2.06,0,3.09,0.86,3.09,2.57c0,0.32-0.06,0.62-0.19,0.9
	c-0.13,0.28-0.32,0.53-0.58,0.74c-0.26,0.21-0.57,0.38-0.96,0.5c-0.38,0.12-0.84,0.18-1.36,0.18H33.93z M33.93,24.2v-5.46h4.49
	c1.16,0,2.05,0.22,2.67,0.66c0.62,0.44,0.93,1.1,0.93,1.98c0,0.55-0.1,1.01-0.29,1.37c-0.19,0.36-0.45,0.66-0.79,0.87
	c-0.33,0.22-0.72,0.37-1.15,0.45c-0.43,0.08-0.89,0.12-1.38,0.12H33.93z M110.1,24.85h-0.23v-1.38h0.52c0.17,0,0.29,0.03,0.38,0.09
	c0.08,0.06,0.13,0.16,0.13,0.3c0,0.12-0.03,0.22-0.1,0.27c-0.07,0.06-0.15,0.09-0.26,0.1l0.39,0.61h-0.26l-0.36-0.59h-0.21V24.85z
	 M110.36,24.07c0.04,0,0.08,0,0.12-0.01c0.04,0,0.07-0.01,0.1-0.03c0.03-0.02,0.05-0.04,0.07-0.07c0.02-0.03,0.03-0.07,0.03-0.12
	c0-0.04-0.01-0.08-0.03-0.1c-0.02-0.02-0.04-0.04-0.07-0.06c-0.03-0.01-0.06-0.02-0.1-0.03c-0.04,0-0.07,0-0.1,0h-0.27v0.4H110.36z
	 M110.35,25.36c-0.67,0-1.22-0.55-1.22-1.22c0-0.67,0.55-1.22,1.22-1.22c0.67,0,1.22,0.55,1.22,1.22
	C111.57,24.81,111.02,25.36,110.35,25.36z M110.35,23.07c-0.59,0-1.08,0.48-1.08,1.08c0,0.59,0.48,1.08,1.08,1.08
	s1.08-0.48,1.08-1.08C111.43,23.55,110.94,23.07,110.35,23.07z"/>
<path class="st2" d="M46.1,32.73l-1.8-2.63h0.66l1.42,2.12l1.42-2.12h0.66l-1.79,2.63v1.93H46.1V32.73z"/>
<path class="st2" d="M48.08,33c0-0.96,0.63-1.73,1.63-1.73s1.63,0.77,1.63,1.73s-0.63,1.74-1.63,1.74S48.08,33.96,48.08,33z
	 M50.81,33c0-0.67-0.39-1.27-1.09-1.27s-1.1,0.6-1.1,1.27c0,0.68,0.4,1.28,1.1,1.28S50.81,33.68,50.81,33z"/>
<path class="st2" d="M54.31,34.19c-0.25,0.29-0.68,0.55-1.18,0.55c-0.69,0-1.05-0.34-1.05-1.05v-2.33h0.51v2.17
	c0,0.58,0.29,0.75,0.74,0.75c0.4,0,0.79-0.23,0.98-0.5v-2.43h0.51v3.3h-0.51V34.19z"/>
<path class="st2" d="M55.84,31.35h0.51v0.53c0.27-0.35,0.65-0.6,1.1-0.6v0.53c-0.06-0.01-0.12-0.02-0.21-0.02
	c-0.31,0-0.75,0.26-0.9,0.53v2.34h-0.51V31.35z"/>
<path class="st2" d="M60.51,34.98c0,0.65-0.31,1.02-0.93,1.02c-0.14,0-0.3-0.01-0.41-0.05l0.07-0.43c0.07,0.03,0.16,0.03,0.25,0.03
	c0.3,0,0.51-0.16,0.51-0.57v-3.62h0.51V34.98z M59.91,30.48c0-0.19,0.16-0.35,0.34-0.35c0.19,0,0.35,0.16,0.35,0.35
	c0,0.19-0.16,0.34-0.35,0.34C60.07,30.82,59.91,30.67,59.91,30.48z"/>
<path class="st2" d="M61.3,33c0-0.96,0.63-1.73,1.63-1.73c1,0,1.63,0.77,1.63,1.73s-0.63,1.74-1.63,1.74
	C61.93,34.74,61.3,33.96,61.3,33z M64.03,33c0-0.67-0.39-1.27-1.09-1.27c-0.7,0-1.1,0.6-1.1,1.27c0,0.68,0.4,1.28,1.1,1.28
	C63.64,34.28,64.03,33.68,64.03,33z"/>
<path class="st2" d="M67.6,34.19c-0.25,0.29-0.68,0.55-1.18,0.55c-0.69,0-1.05-0.34-1.05-1.05v-2.33h0.51v2.17
	c0,0.58,0.29,0.75,0.74,0.75c0.4,0,0.79-0.23,0.98-0.5v-2.43h0.51v3.3H67.6V34.19z"/>
<path class="st2" d="M69.16,31.35h0.51v0.53c0.27-0.35,0.65-0.6,1.1-0.6v0.53c-0.06-0.01-0.12-0.02-0.21-0.02
	c-0.31,0-0.75,0.26-0.9,0.53v2.34h-0.51V31.35z"/>
<path class="st2" d="M73.74,32.5c0-0.58-0.29-0.77-0.74-0.77c-0.4,0-0.79,0.25-0.98,0.51v2.41h-0.51v-3.3h0.51v0.48
	c0.23-0.27,0.68-0.56,1.18-0.56c0.69,0,1.05,0.35,1.05,1.07v2.32h-0.51V32.5z"/>
<path class="st2" d="M76.68,31.27c1,0,1.59,0.78,1.59,1.77v0.13h-2.67c0.04,0.62,0.48,1.14,1.19,1.14c0.38,0,0.76-0.15,1.02-0.42
	l0.25,0.33c-0.33,0.33-0.77,0.51-1.31,0.51c-0.98,0-1.68-0.7-1.68-1.74C75.05,32.04,75.74,31.27,76.68,31.27z M75.59,32.8h2.17
	c-0.01-0.49-0.33-1.1-1.09-1.1C75.97,31.7,75.62,32.29,75.59,32.8z"/>
<path class="st2" d="M79.34,35.54c0.23,0,0.38-0.08,0.49-0.35l0.22-0.5l-1.38-3.34h0.55l1.1,2.71l1.09-2.71h0.56l-1.65,3.97
	c-0.2,0.48-0.49,0.66-0.93,0.67c-0.11,0-0.32-0.02-0.42-0.05l0.08-0.46C79.13,35.52,79.26,35.54,79.34,35.54z"/>
<path class="st2" d="M81.82,35.31c0.22-0.14,0.42-0.41,0.44-0.64c-0.01,0.01-0.06,0.01-0.1,0.01c-0.19,0-0.33-0.14-0.33-0.35
	c0-0.2,0.16-0.37,0.36-0.37c0.23,0,0.43,0.19,0.43,0.52c0,0.42-0.25,0.81-0.56,1.03L81.82,35.31z"/>
<path class="st2" d="M85,33.85c0.22,0.25,0.64,0.47,1.09,0.47c0.51,0,0.78-0.23,0.78-0.55c0-0.36-0.4-0.48-0.85-0.59
	c-0.56-0.13-1.2-0.28-1.2-0.96c0-0.51,0.44-0.95,1.23-0.95c0.56,0,0.96,0.21,1.22,0.48l-0.24,0.36c-0.2-0.24-0.56-0.42-0.98-0.42
	c-0.45,0-0.73,0.21-0.73,0.5c0,0.32,0.38,0.42,0.81,0.53c0.57,0.13,1.24,0.29,1.24,1.03c0,0.55-0.44,1-1.3,1
	c-0.54,0-1-0.16-1.33-0.52L85,33.85z"/>
<path class="st2" d="M89.53,31.27c1,0,1.59,0.78,1.59,1.77v0.13h-2.67c0.04,0.62,0.48,1.14,1.19,1.14c0.38,0,0.76-0.15,1.02-0.42
	l0.25,0.33c-0.33,0.33-0.77,0.51-1.31,0.51c-0.98,0-1.68-0.7-1.68-1.74C87.91,32.04,88.59,31.27,89.53,31.27z M88.45,32.8h2.17
	c-0.01-0.49-0.33-1.1-1.09-1.1C88.82,31.7,88.47,32.29,88.45,32.8z"/>
<path class="st2" d="M93.34,31.27c0.6,0,0.96,0.25,1.21,0.57l-0.34,0.31c-0.22-0.3-0.5-0.43-0.84-0.43c-0.7,0-1.14,0.54-1.14,1.27
	c0,0.73,0.44,1.28,1.14,1.28c0.34,0,0.62-0.14,0.84-0.43l0.34,0.31c-0.25,0.33-0.61,0.57-1.21,0.57c-0.98,0-1.65-0.75-1.65-1.74
	C91.69,32.02,92.36,31.27,93.34,31.27z"/>
<path class="st2" d="M97.47,34.19c-0.25,0.29-0.68,0.55-1.18,0.55c-0.69,0-1.05-0.34-1.05-1.05v-2.33h0.51v2.17
	c0,0.58,0.29,0.75,0.74,0.75c0.4,0,0.79-0.23,0.98-0.5v-2.43h0.51v3.3h-0.51V34.19z"/>
<path class="st2" d="M99,31.35h0.51v0.53c0.27-0.35,0.65-0.6,1.1-0.6v0.53c-0.06-0.01-0.12-0.02-0.21-0.02
	c-0.31,0-0.75,0.26-0.9,0.53v2.34H99V31.35z"/>
<path class="st2" d="M102.61,31.27c1,0,1.59,0.78,1.59,1.77v0.13h-2.67c0.04,0.62,0.48,1.14,1.19,1.14c0.38,0,0.76-0.15,1.02-0.42
	l0.25,0.33c-0.33,0.33-0.77,0.51-1.31,0.51c-0.98,0-1.68-0.7-1.68-1.74C100.99,32.04,101.67,31.27,102.61,31.27z M101.53,32.8h2.17
	c-0.01-0.49-0.33-1.1-1.09-1.1C101.9,31.7,101.56,32.29,101.53,32.8z"/>
<path class="st2" d="M107.28,34.16c-0.25,0.33-0.65,0.57-1.11,0.57c-0.86,0-1.47-0.66-1.47-1.73c0-1.05,0.6-1.74,1.47-1.74
	c0.44,0,0.85,0.22,1.11,0.58V30.1h0.51v4.56h-0.51V34.16z M107.28,32.26c-0.18-0.29-0.58-0.53-0.99-0.53
	c-0.66,0-1.06,0.55-1.06,1.28c0,0.73,0.4,1.27,1.06,1.27c0.41,0,0.81-0.23,0.99-0.52V32.26z"/>
<path class="st2" d="M109.09,33.97c0.21,0,0.38,0.17,0.38,0.38s-0.17,0.38-0.38,0.38c-0.21,0-0.38-0.17-0.38-0.38
	S108.88,33.97,109.09,33.97z"/>
</svg>
